<svg id="Layer_2" data-name="Layer 2" xmlns="http://www.w3.org/2000/svg" viewBox="0 0 24 24"><defs><style>.cls-1{fill:#DDDDDD;}</style></defs><path class="cls-1" d="M12,21A8,8,0,0,1,5,9.16a1,1,0,0,1,1.75,1A6,6,0,1,0,9.12,7.73,1,1,0,0,1,8.17,6,8,8,0,1,1,12,21Z"/><path class="cls-1" d="M12,17a4,4,0,0,1-4-4,4.24,4.24,0,0,1,.11-.94,1,1,0,0,1,1.21-.74,1,1,0,0,1,.62.45,1,1,0,0,1,.12.76A1.84,1.84,0,0,0,10,13a2,2,0,1,0,2-2,1,1,0,0,1,0-2,4,4,0,0,1,0,8Z"/><path class="cls-1" d="M12,6.5a1,1,0,0,1-1-1V2a1,1,0,0,1,2,0V5.5A1,1,0,0,1,12,6.5Z"/><path class="cls-1" d="M19,21a1,1,0,0,1-1-1V13a1,1,0,0,1,2,0v7A1,1,0,0,1,19,21Z"/><path class="cls-1" d="M21,21a2,2,0,0,1-4,0c0-1.1,2-4,2-4S21,19.9,21,21Z"/><path class="cls-1" d="M5,18a1,1,0,0,1-1-1V13a1,1,0,0,1,2,0v4A1,1,0,0,1,5,18Z"/><path class="cls-1" d="M7,18a2,2,0,0,1-4,0c0-1.1,2-4,2-4S7,16.9,7,18Z"/></svg>