<svg id="Layer_2" data-name="Layer 2" xmlns="http://www.w3.org/2000/svg" viewBox="0 0 24 24"><defs><style>.cls-1{fill:#DDDDDD;}</style></defs><path class="cls-1" d="M21.28,19.29a.94.94,0,0,1-.55-.17l-6.37-4.2a1,1,0,0,1-.28-1.39,1,1,0,0,1,1.38-.28l6.37,4.21a1,1,0,0,1,.29,1.38A1,1,0,0,1,21.28,19.29Z"/><path class="cls-1" d="M13.57,16.82a.92.92,0,0,1-.29,0C2.62,13.48,1.42,2.21,1.41,2.1a1,1,0,0,1,.47-1,1,1,0,0,1,1.06,0l19.18,12a1,1,0,1,1-1.06,1.7L3.84,4.07a15.08,15.08,0,0,0,9.37,10.58l1.32-1.76a1,1,0,0,1,1.6,1.2l-1.76,2.33A1,1,0,0,1,13.57,16.82Z"/><path class="cls-1" d="M12,21a1,1,0,0,1-1-1V16a1,1,0,0,1,2,0v4A1,1,0,0,1,12,21Z"/><path class="cls-1" d="M7,16a1,1,0,0,1-1-1V12.38a1,1,0,0,1,2,0V15A1,1,0,0,1,7,16Z"/><path class="cls-1" d="M14,21a2,2,0,0,1-4,0c0-1.1,2-4,2-4S14,19.9,14,21Z"/><path class="cls-1" d="M9,17a2,2,0,0,1-4,0c0-1.1,2-4,2-4S9,15.9,9,17Z"/></svg>