<svg id="Layer_2" data-name="Layer 2" xmlns="http://www.w3.org/2000/svg" viewBox="0 0 24 24"><defs><style>.cls-1{fill:#DDDDDD;}</style></defs><path class="cls-1" d="M21.15,3.35,19,5.5H15L12.85,3.35a.5.5,0,0,0-.85.36V9A5,5,0,0,0,22,9V3.71A.5.5,0,0,0,21.15,3.35ZM15,10a1,1,0,1,1,1-1A1,1,0,0,1,15,10Zm4,0a1,1,0,1,1,1-1A1,1,0,0,1,19,10Z"/><path class="cls-1" d="M18.4,22H17a1,1,0,0,1-.84-.46l-2.51-3.91-.05-.09c-.27-.55-1.37-.95-2.6-.95s-2.33.4-2.6.95l-2,3.92A1,1,0,0,1,5.5,22H4.11a2,2,0,0,1-1.49-.66,2,2,0,0,1-.5-1.54L3,11l-.72-5.8a2.85,2.85,0,0,1,5.65-.78l.37,2.42A1,1,0,0,1,7.45,8a1,1,0,0,1-1.14-.84L5.94,4.73A.84.84,0,0,0,5.1,4a.82.82,0,0,0-.64.29A.85.85,0,0,0,4.25,5L5,10.88a1.55,1.55,0,0,1,0,.22L4.11,20h.78l1.72-3.36c.76-1.51,2.76-2.05,4.39-2.05s3.59.53,4.36,2L17.55,20h.85L18,16.1a1,1,0,0,1,2-.2l.39,3.9a2,2,0,0,1-.51,1.54A2,2,0,0,1,18.4,22Z"/><path class="cls-1" d="M12.5,11a.93.93,0,0,1-.5-.14,8.67,8.67,0,0,0-4.78-.1,1,1,0,1,1-.44-2c2.34-.52,5-.37,6.23.34A1,1,0,0,1,12.5,11Z"/></svg>