<svg id="Layer_2" data-name="Layer 2" xmlns="http://www.w3.org/2000/svg" viewBox="0 0 24 24"><defs><style>.cls-1{fill:#DDDDDD;}</style></defs><path class="cls-1" d="M17,16a1,1,0,0,1-.71-1.71L17.59,13,16,11.41l-3.29,3.3a1,1,0,0,1-1.42-1.42l4-4a1,1,0,0,1,1.42,0l3,3a1,1,0,0,1,0,1.41l-2,2A1,1,0,0,1,17,16Z"/><path class="cls-1" d="M12,9a1,1,0,0,1-.71-.29L9,6.41,6.71,8.71A1,1,0,0,1,5.29,7.29l3-3a1,1,0,0,1,1.42,0l3,3a1,1,0,0,1,0,1.42A1,1,0,0,1,12,9Z"/><path class="cls-1" d="M6,18a1,1,0,0,1-.71-.29l-1-1a1,1,0,0,1,0-1.42l4-4a1,1,0,0,1,1.42,0l3,3a1,1,0,0,1-1.42,1.42L9,13.41,6.41,16l.3.29a1,1,0,0,1,0,1.42A1,1,0,0,1,6,18Z"/><path class="cls-1" d="M13,21a1,1,0,0,1-1-.92l-1-12a1,1,0,0,1,.29-.79L13.59,5l-1.3-1.29a1,1,0,0,1,1.42-1.42l2,2a1,1,0,0,1,0,1.42L13,8.38l1,11.54A1,1,0,0,1,13.08,21Z"/><path class="cls-1" d="M16,22H8a1,1,0,0,1,0-2h8a1,1,0,0,1,0,2Z"/><path class="cls-1" d="M16,11a1,1,0,0,1-.71-.29,1,1,0,0,1,0-1.42l4-4a1,1,0,1,1,1.42,1.42l-4,4A1,1,0,0,1,16,11Z"/><path class="cls-1" d="M7,15a1,1,0,0,1-.71-.29l-2-2a1,1,0,0,1,1.42-1.42l2,2a1,1,0,0,1,0,1.42A1,1,0,0,1,7,15Z"/><path class="cls-1" d="M19,18a1,1,0,0,1-.71-.29l-2-2a1,1,0,0,1,1.42-1.42l2,2a1,1,0,0,1,0,1.42A1,1,0,0,1,19,18Z"/><path class="cls-1" d="M11.42,22h-.05a1,1,0,0,1-.95-1L11,8a1,1,0,0,1,1-1,1,1,0,0,1,1,1l-.58,13A1,1,0,0,1,11.42,22Z"/></svg>