<svg id="Layer_2" data-name="Layer 2" xmlns="http://www.w3.org/2000/svg" viewBox="0 0 24 24"><defs><style>.cls-1{fill:#DDDDDD;}</style></defs><path class="cls-1" d="M11.07,22H3a1,1,0,0,1-1-1V13a1,1,0,0,1,.29-.71l10-10A1,1,0,0,1,13,2h8a1,1,0,0,1,1,1v8.07a1,1,0,0,1-.29.71L19,14.45A1,1,0,0,1,17.59,13L20,10.66V4H13.41L4,13.41V20h6.66l4.11-4.11a1,1,0,0,1,1.41,0,1,1,0,0,1,0,1.42l-4.4,4.4A1,1,0,0,1,11.07,22Z"/><rect class="cls-1" x="11" y="8.5" width="2" height="7"/><rect class="cls-1" x="8.5" y="11" width="7" height="2"/></svg>