<svg id="Layer_2" data-name="Layer 2" xmlns="http://www.w3.org/2000/svg" viewBox="0 0 24 24"><defs><style>.cls-1{fill:#DDDDDD;}</style></defs><path class="cls-1" d="M16.15,1.35,14,3.5H10L7.85,1.35A.5.5,0,0,0,7,1.71V7A5,5,0,0,0,17,7V1.71A.5.5,0,0,0,16.15,1.35ZM10,8a1,1,0,1,1,1-1A1,1,0,0,1,10,8Zm4,0a1,1,0,1,1,1-1A1,1,0,0,1,14,8Z"/><path class="cls-1" d="M12,22c-1.9,0-4-2.68-5.17-4.41l-1.6,1.59a2,2,0,0,1-3.41-1.25L1,8.08a1,1,0,0,1,.49-.94,1,1,0,0,1,1.06,0l3,2a1,1,0,0,1-1.1,1.66L3.17,10l.65,7.79,2.47-2.48A1,1,0,0,1,7.12,15a1,1,0,0,1,.74.48C9.14,17.62,11.16,20,12,20s2.86-2.38,4.14-4.51a1,1,0,0,1,.74-.48,1,1,0,0,1,.83.28l2.47,2.48L20.83,10l-1.28.85a1,1,0,0,1-1.1-1.66l3-2a1,1,0,0,1,1.06,0,1,1,0,0,1,.49.94l-.83,9.85a2,2,0,0,1-3.4,1.25l-1.6-1.59C16,19.32,13.9,22,12,22Z"/><path class="cls-1" d="M9,9h2a0,0,0,0,1,0,0v4a1,1,0,0,1-1,1h0a1,1,0,0,1-1-1V9A0,0,0,0,1,9,9Z"/><path class="cls-1" d="M13,9h2a0,0,0,0,1,0,0v4a1,1,0,0,1-1,1h0a1,1,0,0,1-1-1V9A0,0,0,0,1,13,9Z"/></svg>