<svg id="Layer_2" data-name="Layer 2" xmlns="http://www.w3.org/2000/svg" viewBox="0 0 24 24"><defs><style>.cls-1{fill:#DDDDDD;}</style></defs><circle class="cls-1" cx="9.5" cy="11.5" r="1.5"/><circle class="cls-1" cx="14.5" cy="11.5" r="1.5"/><path class="cls-1" d="M13,22H11c-2.49,0-4.22-2.21-4.47-4.44l-1-.69a3.8,3.8,0,0,1-1.67-2.5A4.09,4.09,0,0,1,4,11.72V9a4.88,4.88,0,0,1,.14-1H3A1,1,0,0,1,3,6H5.47a1,1,0,0,1,.81.42,1,1,0,0,1,.13.9A8.09,8.09,0,0,0,6,9v3a1,1,0,0,1-.21.61,2,2,0,0,0,0,1.29,2,2,0,0,0,.65,1.2l.12.07,1.5,1A1,1,0,0,1,8.5,17c0,1.42,1,3,2.5,3h2c1.47,0,2.5-1.58,2.5-3a1,1,0,0,1,.45-.83l1.5-1,.12-.07a2,2,0,0,0,.65-1.2,2,2,0,0,0,0-1.29A1,1,0,0,1,18,12V9c0-2-2.2-5-5.12-5H3.12a1,1,0,0,1,0-2h9.76A7.55,7.55,0,0,1,20,9v2.72a4.09,4.09,0,0,1,.17,2.65,3.8,3.8,0,0,1-1.67,2.5l-1,.69C17.22,19.79,15.49,22,13,22Z"/><path class="cls-1" d="M18,8H11a1,1,0,0,1,0-2h7a1,1,0,0,1,0,2Z"/><path class="cls-1" d="M11,18H8a1,1,0,0,1,0-2h3a1,1,0,0,1,0,2Z"/></svg>