<svg id="Layer_2" data-name="Layer 2" xmlns="http://www.w3.org/2000/svg" viewBox="0 0 24 24"><defs><style>.cls-1{fill:#DDDDDD;}</style></defs><path class="cls-1" d="M16,22a1,1,0,0,1-1-1V3h1a8.84,8.84,0,0,1,5.71,2.29,1,1,0,0,1-1.42,1.42A6.24,6.24,0,0,0,17,5.11V21A1,1,0,0,1,16,22Z"/><path class="cls-1" d="M12,19a1,1,0,0,1-1-1V17a1,1,0,0,1,2,0v1A1,1,0,0,1,12,19Z"/><path class="cls-1" d="M8,19a1,1,0,0,1-1-1V17a1,1,0,0,1,2,0v1A1,1,0,0,1,8,19Z"/><path class="cls-1" d="M12,22a1,1,0,0,1-1-1V20a1,1,0,0,1,2,0v1A1,1,0,0,1,12,22Z"/><path class="cls-1" d="M8,22a1,1,0,0,1-1-1V20a1,1,0,0,1,2,0v1A1,1,0,0,1,8,22Z"/><path class="cls-1" d="M12,12.38a1,1,0,0,1-.34-.06,4.48,4.48,0,0,0-3.3,0,1,1,0,0,1-.72-1.87,6.56,6.56,0,0,1,4.7,0,1,1,0,0,1-.34,2Z"/><path class="cls-1" d="M12,15.38a1,1,0,0,1-.34-.06,4.48,4.48,0,0,0-3.3,0,1,1,0,0,1-.72-1.87,6.51,6.51,0,0,1,4.7,0,1,1,0,0,1-.34,2Z"/><path class="cls-1" d="M10,9A3,3,0,0,1,7,6V5a3,3,0,0,1,6,0V6A3,3,0,0,1,10,9Zm0-5A1,1,0,0,0,9,5V6a1,1,0,0,0,2,0V5A1,1,0,0,0,10,4Z"/><path class="cls-1" d="M3,10a1,1,0,0,1-1-.68,1,1,0,0,1,.63-1.27A25.42,25.42,0,0,1,10,7a25.42,25.42,0,0,1,7.32,1.05,1,1,0,0,1-.64,1.9A23.55,23.55,0,0,0,10,9,23.38,23.38,0,0,0,3.32,10,1.25,1.25,0,0,1,3,10Z"/></svg>