<svg id="Layer_2" data-name="Layer 2" xmlns="http://www.w3.org/2000/svg" viewBox="0 0 24 24"><defs><style>.cls-1{fill:#DDDDDD;}</style></defs><path class="cls-1" d="M5,8A3,3,0,0,1,2.27,6.23,2.9,2.9,0,0,1,2,5,3,3,0,0,1,3.77,2.27,2.9,2.9,0,0,1,5,2,1,1,0,0,1,5,4,1,1,0,0,0,4,5a1,1,0,0,0,.09.41,1,1,0,0,0,1.32.5A.72.72,0,0,0,5.6,5.8,1,1,0,0,1,6.79,7.41a2.61,2.61,0,0,1-.56.32A2.9,2.9,0,0,1,5,8Z"/><path class="cls-1" d="M20,22H12a1,1,0,0,1-.74-.33A1,1,0,0,1,11,20.9l1-10a1,1,0,0,1,1-.9H19a1,1,0,0,1,0,2h-5l-.8,8h5.8l-.5-5a1,1,0,0,1,.89-1.09,1,1,0,0,1,1.1.89L21,20.9a1,1,0,0,1-.26.77A1,1,0,0,1,20,22Z"/><path class="cls-1" d="M19,12H13a3,3,0,0,1-3-3V5a1,1,0,0,1,2,0V9a1,1,0,0,0,1,1h6a1,1,0,0,0,1-1V5a1,1,0,0,1,2,0V9A3,3,0,0,1,19,12Z"/><path class="cls-1" d="M16,7a1,1,0,0,1-1-1V5a1,1,0,0,1,2,0V6A1,1,0,0,1,16,7Z"/><path class="cls-1" d="M21,8H11a1,1,0,0,1,0-2H21a1,1,0,0,1,0,2Z"/><path class="cls-1" d="M16,22a1,1,0,0,1-1-1V18a1,1,0,0,1,2,0v3A1,1,0,0,1,16,22Z"/><path class="cls-1" d="M12,22H10a1,1,0,0,1,0-2h2a1,1,0,0,1,0,2Z"/><path class="cls-1" d="M10,22H8a3,3,0,0,1-3-3V13a1,1,0,0,1,1-1h4a1,1,0,0,1,0,2H7v5a1,1,0,0,0,1,1h2a1,1,0,0,1,0,2Z"/></svg>