<svg id="Layer_2" data-name="Layer 2" xmlns="http://www.w3.org/2000/svg" viewBox="0 0 24 24"><defs><style>.cls-1{fill:#DDDDDD;}</style></defs><path class="cls-1" d="M2.74,13.1A1,1,0,0,1,2,11.39L5.7,7.72,6,3.49a1,1,0,0,1,.29-.63L7,2.15a1,1,0,0,1,1.52.13l1.76,2.47a1,1,0,0,1-.23,1.4,1,1,0,0,1-1.39-.23L7.93,4.86,7.67,8.24a1,1,0,0,1-.29.63L3.44,12.81A1,1,0,0,1,2.74,13.1Z"/><path class="cls-1" d="M3.14,18.36a1,1,0,0,1-.71-.3,1,1,0,0,1,0-1.41L8.09,11a1,1,0,0,1,.7-.29h0A1,1,0,0,1,9.5,11a1,1,0,0,0,1.41,0L13,8.87a2.49,2.49,0,0,0,.37-3L12.29,4,10.21,6A1,1,0,0,1,8.79,6a1,1,0,0,1,0-1.41l2.08-2.08A2,2,0,0,1,12.53,2a2,2,0,0,1,1.47,1L15.12,4.8a4.48,4.48,0,0,1-.67,5.49l-2.12,2.12A3.06,3.06,0,0,1,8.91,13L3.84,18.06A1,1,0,0,1,3.14,18.36Z"/><path class="cls-1" d="M21.49,22h0c-.22,0-5.52-.27-8-3.93l-1.75-2.49a1,1,0,0,1,.24-1.4,1,1,0,0,1,1.39.24l1.77,2.51a7.5,7.5,0,0,0,4.28,2.7l-4.9-7.12a1,1,0,1,1,1.65-1.14l6.23,9.06a1,1,0,0,1,.06,1.05A1,1,0,0,1,21.49,22Z"/></svg>