<svg id="Layer_2" data-name="Layer 2" xmlns="http://www.w3.org/2000/svg" viewBox="0 0 24 24"><defs><style>.cls-1{fill:#DDDDDD;}</style></defs><path class="cls-1" d="M17,22H14a1,1,0,0,1-.76-.35,1,1,0,0,1-.23-.81L16,9.08,13.05,3.32a1,1,0,0,1,.14-.9A1,1,0,0,1,14,2h3a1,1,0,0,1,.95.68l2,6a1.12,1.12,0,0,1,0,.48l-2,12A1,1,0,0,1,17,22Z"/><path class="cls-1" d="M14,22a1,1,0,0,1-1-1c0-.05,0-.11,0-.16h0L15,9.08,13.28,4H7.72L6,9.08,7.85,20H11a1,1,0,0,1,0,2H7a1,1,0,0,1-1-.83l-2-12a1.12,1.12,0,0,1,0-.48l2-6A1,1,0,0,1,7,2h7a1,1,0,0,1,.95.68l2,6a1.13,1.13,0,0,1,0,.48l-2,12A1,1,0,0,1,14,22Z"/></svg>