<svg id="Layer_2" data-name="Layer 2" xmlns="http://www.w3.org/2000/svg" viewBox="0 0 24 24"><defs><style>.cls-1{fill:#DDDDDD;}</style></defs><path class="cls-1" d="M19,22H5a3,3,0,0,1-3-3V18a1,1,0,0,1,.45-.83l2.71-1.81,2.33-7A6.16,6.16,0,0,1,9.91,5.19L12.7,3.33A4.63,4.63,0,0,1,17.32,3l4.13,2.07A1,1,0,0,1,22,6V9a1,1,0,0,1-2,0V6.62L16.43,4.83A2.64,2.64,0,0,0,13.81,5L11,6.85A4.19,4.19,0,0,0,9.39,9L7,16.32a1,1,0,0,1-.4.51L4,18.54V19a1,1,0,0,0,1,1H19a1,1,0,0,0,1-1v-.59l-1.71-1.7-.07-.09-4-5a1,1,0,0,1-.17-.94l1-3a1,1,0,1,1,1.9.64l-.83,2.48,3.63,4.53,2,2A1,1,0,0,1,22,18v1A3,3,0,0,1,19,22Z"/><path class="cls-1" d="M17,15H10a1,1,0,0,1,0-2h7a1,1,0,0,1,0,2Z"/></svg>