<svg id="Layer_2" data-name="Layer 2" xmlns="http://www.w3.org/2000/svg" viewBox="0 0 24 24"><defs><style>.cls-1{fill:#DDDDDD;}</style></defs><path class="cls-1" d="M13.5,22h-3c-2.36,0-4-2.06-4-5a1,1,0,0,1,2,0c0,1.11.42,3,2,3h3c1.58,0,2-1.89,2-3a1,1,0,0,1,2,0C17.5,19.94,15.86,22,13.5,22Z"/><path class="cls-1" d="M18,16a1,1,0,0,1-.43-1.9,1.37,1.37,0,0,0,.71-.91.69.69,0,0,0-.07-.58A1,1,0,0,1,18,12V9a5.67,5.67,0,0,0-4.49-4.95L12.92,5.4a1,1,0,0,1-1.37.49,4.19,4.19,0,0,0-3.42.67A4.12,4.12,0,0,0,6,10v2a1,1,0,0,1-.21.61.69.69,0,0,0-.07.58,1.37,1.37,0,0,0,.71.91,1,1,0,0,1-.86,1.8,3.43,3.43,0,0,1-1.8-2.24A2.65,2.65,0,0,1,4,11.71V10A6,6,0,0,1,7.08,4.86a6.84,6.84,0,0,1,4.36-1.07L12,2.6a1,1,0,0,1,.92-.6A7.55,7.55,0,0,1,20,9v2.71a2.65,2.65,0,0,1,.23,1.95,3.43,3.43,0,0,1-1.8,2.24A1,1,0,0,1,18,16Z"/><circle class="cls-1" cx="9" cy="11" r="2"/><circle class="cls-1" cx="15" cy="11" r="1.5"/><path class="cls-1" d="M13,18H11a1,1,0,0,1,0-2h2a1,1,0,0,1,0,2Z"/><path class="cls-1" d="M7,7.1a1,1,0,0,1-.75-.34l-.78-.9A1,1,0,1,1,7,4.55l.78.89A1,1,0,0,1,7,7.1Z"/><path class="cls-1" d="M9.5,5.5a1,1,0,0,1-1-.78l-.21-.91a1,1,0,0,1,.76-1.2,1,1,0,0,1,1.19.76l.21.92a1,1,0,0,1-.76,1.19A.78.78,0,0,1,9.5,5.5Z"/><path class="cls-1" d="M5,9.28a1,1,0,0,1-.44-.1l-.85-.42A1,1,0,1,1,4.59,7l.85.41A1,1,0,0,1,5,9.28Z"/></svg>