<svg id="Layer_2" data-name="Layer 2" xmlns="http://www.w3.org/2000/svg" viewBox="0 0 24 24"><defs><style>.cls-1{fill:#DDDDDD;}</style></defs><path class="cls-1" d="M8.15,11.3H8a1,1,0,0,1-.82-1.15,5,5,0,0,1,5.7-4.07,1,1,0,0,1,.82,1.15A1,1,0,0,1,12.53,8a3,3,0,0,0-3.4,2.43A1,1,0,0,1,8.15,11.3Z"/><path class="cls-1" d="M17.28,18a1,1,0,0,1-.75-.34,1,1,0,0,1,.09-1.41A7,7,0,0,0,7.47,5.67a1,1,0,0,1-1.41-.12,1,1,0,0,1,.11-1.41A9,9,0,0,1,17.94,17.75,1,1,0,0,1,17.28,18ZM6.72,18a1,1,0,0,1-.66-.25A9,9,0,0,1,3,11a8.9,8.9,0,0,1,.6-3.23,1,1,0,1,1,1.86.72A7.11,7.11,0,0,0,5,11a7,7,0,0,0,2.38,5.25,1,1,0,0,1,.09,1.41A1,1,0,0,1,6.72,18Z"/><path class="cls-1" d="M17,22H7a3,3,0,0,1,0-6h.71a1,1,0,1,1,0,2H7a1,1,0,0,0,0,2H17a1,1,0,0,0,0-2H11.71a1,1,0,0,1,0-2H17a3,3,0,0,1,0,6Z"/></svg>