<svg id="Layer_2" data-name="Layer 2" xmlns="http://www.w3.org/2000/svg" viewBox="0 0 24 24"><defs><style>.cls-1{fill:#333;}</style></defs><path class="cls-1" d="M12,23A9,9,0,0,1,8.17,5.86,1,1,0,0,1,9,5.41a1,1,0,0,1,1,1v.18a1,1,0,0,1-.62.92,7,7,0,1,0,5.24,0A1,1,0,0,1,14,6.59V4H9.59a1,1,0,0,1,0-2H15a1,1,0,0,1,1,1V5.94A9,9,0,0,1,12,23Z"/><path class="cls-1" d="M16,4H8A1,1,0,0,1,8,2h8a1,1,0,0,1,0,2Z"/><path class="cls-1" d="M8,13.9H7.83A1,1,0,0,1,7,12.74a4.49,4.49,0,0,1,5.16-3.68,1,1,0,1,1-.34,2,2.47,2.47,0,0,0-2.84,2A1,1,0,0,1,8,13.9Z"/></svg>