<svg id="Layer_2" data-name="Layer 2" xmlns="http://www.w3.org/2000/svg" viewBox="0 0 24 24"><defs><style>.cls-1{fill:#333;}</style></defs><path class="cls-1" d="M13,22H11c-1.61,0-4.5-2.52-4.5-5a1,1,0,0,1,2,0c0,1.41,1.95,2.94,2.51,3h2c.55-.06,2.5-1.59,2.5-3a1,1,0,0,1,2,0C17.5,19.48,14.61,22,13,22Z"/><path class="cls-1" d="M17,2a4.94,4.94,0,0,0-3.07,1.08A6,6,0,0,1,19,9v2.58A5,5,0,0,0,17,2Z"/><path class="cls-1" d="M5,9a6,6,0,0,1,5.07-5.92A4.94,4.94,0,0,0,7,2a5,5,0,0,0-2,9.58Z"/><circle class="cls-1" cx="9" cy="11" r="2"/><circle class="cls-1" cx="15" cy="11" r="2"/><circle class="cls-1" cx="12" cy="14.5" r="1.5"/><path class="cls-1" d="M15,11a1,1,0,0,1-1-1V8a1,1,0,0,1,2,0v2A1,1,0,0,1,15,11Z"/><path class="cls-1" d="M9,11a1,1,0,0,1-1-1V8a1,1,0,0,1,2,0v2A1,1,0,0,1,9,11Z"/></svg>