<svg id="Layer_2" data-name="Layer 2" xmlns="http://www.w3.org/2000/svg" viewBox="0 0 24 24"><defs><style>.cls-1{fill:#333;}</style></defs><path class="cls-1" d="M12,18a4.54,4.54,0,0,1-.82-.07,1,1,0,0,1-.82-1.15A1,1,0,0,1,11.47,16a2.92,2.92,0,0,0,2.2-.51,3,3,0,0,0,1.2-1.92,1,1,0,1,1,2,.33A5,5,0,0,1,12,18Z"/><path class="cls-1" d="M6.72,9H4A1,1,0,0,1,4,7H6.72a1,1,0,0,1,0,2Z"/><path class="cls-1" d="M20,9H17.28a1,1,0,0,1,0-2H20a1,1,0,0,1,0,2Z"/><path class="cls-1" d="M7,4a1.05,1.05,0,0,1-.71-.29,1.15,1.15,0,0,1-.21-.33A1,1,0,0,1,6,3a1.05,1.05,0,0,1,.29-.71,1,1,0,0,1,1.09-.21,1.15,1.15,0,0,1,.33.21A1.05,1.05,0,0,1,8,3a1,1,0,0,1-.08.38,1.15,1.15,0,0,1-.21.33,1.15,1.15,0,0,1-.33.21A1,1,0,0,1,7,4Z"/><path class="cls-1" d="M11,5a1.05,1.05,0,0,1-.71-.29A1,1,0,0,1,10,4a1,1,0,0,1,.08-.38,1.15,1.15,0,0,1,.21-.33A1,1,0,0,1,11.2,3a.64.64,0,0,1,.18.06l.18.09.15.12a1.15,1.15,0,0,1,.21.33A.84.84,0,0,1,12,4a1.05,1.05,0,0,1-.29.71A1,1,0,0,1,11,5Z"/><path class="cls-1" d="M14,9a1,1,0,0,1-.6-.2,1,1,0,0,1-.2-1.4l3-4a1,1,0,1,1,1.6,1.2l-3,4A1,1,0,0,1,14,9Z"/><path class="cls-1" d="M12,22a9,9,0,0,1-9-9A8.87,8.87,0,0,1,5,7.37,1,1,0,0,1,5.78,7H8.19a1,1,0,0,1,0,2H6.27A6.89,6.89,0,0,0,5,13a7,7,0,0,0,14,0,6.89,6.89,0,0,0-1.27-4H12.19a1,1,0,1,1,0-2h6a1,1,0,0,1,.78.37A8.87,8.87,0,0,1,21,13,9,9,0,0,1,12,22Z"/></svg>