<svg id="Layer_2" data-name="Layer 2" xmlns="http://www.w3.org/2000/svg" viewBox="0 0 24 24"><defs><style>.cls-1{fill:#333;}</style></defs><path class="cls-1" d="M9.82,21.38a1.09,1.09,0,0,1-.26,0,1,1,0,0,1-.74-.92l-.26-5.59L3.19,13.49a1,1,0,0,1-.12-1.9L8.28,9.53l0-.45a1,1,0,1,1,2-.12l.08,1.17a1,1,0,0,1-.64,1l-3,1.19,3.08.77a1,1,0,0,1,.75.93l.15,3.2,1.75-2.7a1,1,0,0,1,1.11-.42l3,.85-2-2.51a1,1,0,0,1-.06-1.17l1.71-2.63-3,1.11a1,1,0,0,1-1.12-.3L8.26,4.76a1,1,0,0,1-.32-.67v0a1,1,0,0,1,1.77-.69l3.53,4.24,5.14-1.93A1,1,0,0,1,19.51,6a1,1,0,0,1,.06,1.17l-3,4.58,3.47,4.37A1,1,0,0,1,19,17.71l-5.3-1.5-3,4.72A1,1,0,0,1,9.82,21.38Z"/><path class="cls-1" d="M12,22A10,10,0,0,1,4.6,5.27,1,1,0,0,1,6.08,6.62,7.94,7.94,0,1,0,9,4.59a1,1,0,1,1-.76-1.85A10,10,0,1,1,12,22Z"/></svg>