<svg id="Layer_2" data-name="Layer 2" xmlns="http://www.w3.org/2000/svg" viewBox="0 0 24 24"><defs><style>.cls-1{fill:#333;}</style></defs><circle class="cls-1" cx="12" cy="5.5" r="1.5"/><path class="cls-1" d="M8.5,13h1A1.5,1.5,0,0,1,11,14.5v0A1.5,1.5,0,0,1,9.5,16H7a0,0,0,0,1,0,0V14.5A1.5,1.5,0,0,1,8.5,13Z"/><path class="cls-1" d="M14.5,13h1A1.5,1.5,0,0,1,17,14.5V16a0,0,0,0,1,0,0H14.5A1.5,1.5,0,0,1,13,14.5v0A1.5,1.5,0,0,1,14.5,13Z"/><path class="cls-1" d="M11.47,16l-.56.84a.64.64,0,0,0,.53,1h1.12a.64.64,0,0,0,.53-1L12.53,16A.64.64,0,0,0,11.47,16Z"/><path class="cls-1" d="M13,23H11c-1.87,0-2.66-1.63-2.91-3H7a3.11,3.11,0,0,1-2.79-1.92A4.09,4.09,0,0,1,4,14.72V14a1,1,0,0,1,2,0v1a1,1,0,0,1-.21.61,2.36,2.36,0,0,0,.27,1.71A1.11,1.11,0,0,0,7,18H9a1,1,0,0,1,1,1s.06,2,1,2h2c.94,0,1-2,1-2a1,1,0,0,1,1-1h2a1.11,1.11,0,0,0,.94-.68,2.31,2.31,0,0,0,.26-1.72A1,1,0,0,1,18,15V14a1,1,0,0,1,2,0v.72a4.09,4.09,0,0,1-.21,3.36A3.11,3.11,0,0,1,17,20H15.91C15.66,21.37,14.87,23,13,23Z"/><path class="cls-1" d="M19.5,11H9.26a1,1,0,1,1,0-2H19.5a.5.5,0,0,0,0-1H17.89a1,1,0,0,1-1-.8c-.41-2-2.19-4.2-4.16-4.2h-1.5c-2,0-3.75,2.17-4.16,4.2a1,1,0,0,1-1,.8H4.5a.5.5,0,0,0,0,1h.76a1,1,0,0,1,0,2H4.5a2.5,2.5,0,0,1,0-5h.84c.84-2.58,3.11-5,5.91-5h1.5c2.8,0,5.07,2.42,5.91,5h.84a2.5,2.5,0,0,1,0,5Z"/></svg>