<svg id="Layer_2" data-name="Layer 2" xmlns="http://www.w3.org/2000/svg" viewBox="0 0 24 24"><defs><style>.cls-1{fill:#333;}</style></defs><path class="cls-1" d="M13.5,22h-3c-2.35,0-4-2.06-4-5a1,1,0,0,1,2,0c0,1.11.42,3,2,3h3c1.58,0,2-1.89,2-3a1,1,0,0,1,2,0C17.5,19.94,15.85,22,13.5,22Z"/><path class="cls-1" d="M18,16a1,1,0,0,1-.43-1.9,1.37,1.37,0,0,0,.71-.91.69.69,0,0,0-.07-.58A1,1,0,0,1,18,12V9c0-2-2.2-5-5.12-5H11.12C8.2,4,6,7,6,9v3a1,1,0,0,1-.21.61.69.69,0,0,0-.07.58,1.37,1.37,0,0,0,.71.91,1,1,0,0,1-.86,1.8,3.43,3.43,0,0,1-1.8-2.24A2.65,2.65,0,0,1,4,11.71V9a7.55,7.55,0,0,1,7.12-7h1.76A7.55,7.55,0,0,1,20,9v2.71a2.65,2.65,0,0,1,.23,1.95,3.43,3.43,0,0,1-1.8,2.24A1,1,0,0,1,18,16Z"/><path class="cls-1" d="M8.5,10h1A1.5,1.5,0,0,1,11,11.5v0A1.5,1.5,0,0,1,9.5,13H7a0,0,0,0,1,0,0V11.5A1.5,1.5,0,0,1,8.5,10Z"/><path class="cls-1" d="M14.5,10h1A1.5,1.5,0,0,1,17,11.5V13a0,0,0,0,1,0,0H14.5A1.5,1.5,0,0,1,13,11.5v0A1.5,1.5,0,0,1,14.5,10Z"/><path class="cls-1" d="M11.47,13l-.56.84a.64.64,0,0,0,.53,1h1.12a.64.64,0,0,0,.53-1L12.53,13A.64.64,0,0,0,11.47,13Z"/><path class="cls-1" d="M11,18a1,1,0,0,1-.71-1.71,1,1,0,0,1,1.09-.21,1.15,1.15,0,0,1,.33.21,1,1,0,0,1,0,1.42,1.15,1.15,0,0,1-.33.21A1,1,0,0,1,11,18Z"/><path class="cls-1" d="M13,18a1.05,1.05,0,0,1-.71-.29,1.15,1.15,0,0,1-.21-.33A1,1,0,0,1,12,17a1.36,1.36,0,0,1,0-.2.64.64,0,0,1,.06-.18.76.76,0,0,1,.09-.18,1.58,1.58,0,0,1,.12-.15,1,1,0,0,1,1.09-.21,1.15,1.15,0,0,1,.33.21A1.05,1.05,0,0,1,14,17a1,1,0,0,1-.08.38.9.9,0,0,1-.54.54A1,1,0,0,1,13,18Z"/></svg>