<svg id="Layer_2" data-name="Layer 2" xmlns="http://www.w3.org/2000/svg" viewBox="0 0 24 24"><defs><style>.cls-1{fill:#333;}</style></defs><path class="cls-1" d="M12,22a4.39,4.39,0,0,1-1.66-.33l-.25.07A4.37,4.37,0,0,1,9,21.87C6.07,21.87,3.2,19,2.18,15a12.3,12.3,0,0,1-.37-2.92c0-3.5,1.61-6.17,4.1-6.8a4.88,4.88,0,0,1,3.54.53,4.55,4.55,0,0,1,5.18.06,4.89,4.89,0,0,1,3.65-.59c2.49.63,4.1,3.3,4.1,6.8A11.83,11.83,0,0,1,22,15a12.64,12.64,0,0,1-.43,1.36,1,1,0,1,1-1.87-.71,11,11,0,0,0,.36-1.15,9.64,9.64,0,0,0,.32-2.42c0-2.51-1.05-4.47-2.59-4.86a3.14,3.14,0,0,0-2.62.68,1,1,0,0,1-1.27-.06,2.61,2.61,0,0,0-3.74-.06,1,1,0,0,1-1.23.06A3.11,3.11,0,0,0,6.4,7.2c-1.55.39-2.59,2.35-2.59,4.86a10.1,10.1,0,0,0,.31,2.42C5,17.87,7.49,20.33,9.6,19.8a2.32,2.32,0,0,0,.37-.13,1,1,0,0,1,.86,0,2.44,2.44,0,0,0,2.41,0,1,1,0,0,1,.91,0,2.11,2.11,0,0,0,.44.17,3.52,3.52,0,0,0,3.22-1.19,1,1,0,0,1,1.41,0,1,1,0,0,1,0,1.42,5.48,5.48,0,0,1-5.1,1.69l-.35-.11A4.33,4.33,0,0,1,12,22Z"/><path class="cls-1" d="M12,7a1,1,0,0,1-1-1,4.49,4.49,0,0,1,2.8-4.48,1,1,0,0,1,.65,1.89A2.54,2.54,0,0,0,13,6,1,1,0,0,1,12,7Z"/><path class="cls-1" d="M9,12.2l-.19,0-1-.2a1,1,0,0,1,.38-2l1,.2a1,1,0,0,1-.19,2Z"/><path class="cls-1" d="M15,12.2a1,1,0,0,1-.19-2l1-.2a1,1,0,0,1,.38,2l-1,.2Z"/><path class="cls-1" d="M13.5,17.2A1,1,0,0,1,13,17L12,16.4l-.95.63A1,1,0,0,1,10,17l-1.5-1a1,1,0,0,1-.28-1.39,1,1,0,0,1,1.38-.27l.95.63.95-.63a1,1,0,0,1,1.1,0l.95.63.95-.63a1,1,0,0,1,1.38.27A1,1,0,0,1,15.55,16l-1.5,1A1,1,0,0,1,13.5,17.2Z"/></svg>