<svg id="Layer_2" data-name="Layer 2" xmlns="http://www.w3.org/2000/svg" viewBox="0 0 24 24"><defs><style>.cls-1{fill:#333;}</style></defs><path class="cls-1" d="M18,15a1,1,0,0,1-.71-.29l-5-5a1,1,0,0,1,1.42-1.42l5,5a1,1,0,0,1,0,1.42A1,1,0,0,1,18,15Z"/><path class="cls-1" d="M12,19a1,1,0,0,1-.71-.29l-7-7a1,1,0,0,1-.25-1,1,1,0,0,1,.72-.7l8-2a1,1,0,0,1,1,.26l1,1a1,1,0,0,1-1.42,1.42l-.6-.6L7,11.54l5,5.05V14a1,1,0,0,1,2,0v3a1,1,0,0,1-.29.71l-1,1A1,1,0,0,1,12,19Z"/><path class="cls-1" d="M10.19,23a1.05,1.05,0,0,1-.65-.23l-1.18-1a1,1,0,0,1-.07-1.48l3-3a1,1,0,0,1,1.42,1.42l-2.23,2.23.35.29A1,1,0,0,1,11,22.64,1,1,0,0,1,10.19,23Z"/><path class="cls-1" d="M3,21a1,1,0,0,1-.89-.55,1,1,0,0,1,.44-1.34l2.76-1.38L4.59,17H2a1,1,0,0,1,0-2H5a1,1,0,0,1,.71.29l2,2a1,1,0,0,1,.28.87,1,1,0,0,1-.54.73l-4,2A.93.93,0,0,1,3,21Z"/><path class="cls-1" d="M18,14a1,1,0,0,1-.24-2l4-1A1,1,0,0,1,22.24,13l-4,1Z"/><path class="cls-1" d="M17.27,3.73a2.5,2.5,0,0,1-3.54,3.54C12.76,6.29,16.29,2.76,17.27,3.73Z"/><path class="cls-1" d="M13,7.32a1,1,0,0,1-.49-1.87L17,2.93a1,1,0,0,1,1,1.75l-4.5,2.51A1,1,0,0,1,13,7.32Z"/><path class="cls-1" d="M13.56,6.56a1,1,0,0,1-.7-.29L9.29,2.71A1,1,0,0,1,9.14,1.5,1,1,0,0,1,10.27,1L17,2.9a1,1,0,0,1,.7,1.23C17.58,4.66,13.82,6.56,13.56,6.56Z"/></svg>