<svg id="Layer_2" data-name="Layer 2" xmlns="http://www.w3.org/2000/svg" viewBox="0 0 24 24"><defs><style>.cls-1{fill:#333;}</style></defs><path class="cls-1" d="M17,20.09h0a1,1,0,0,1-.7-.3l-4-4.09A1,1,0,0,1,12,15V11.41L9.29,8.71a1,1,0,1,1,1.42-1.42l3,3A1,1,0,0,1,14,11v3.59l3,3.07.37-.37a1,1,0,0,1,1.41,0,1,1,0,0,1,0,1.42l-1.08,1.08A1,1,0,0,1,17,20.09Z"/><path class="cls-1" d="M10,23H9a1,1,0,0,1-1-1V16a1,1,0,0,1,1-1h1a1,1,0,0,1,0,2v4a1,1,0,0,1,0,2Z"/><path class="cls-1" d="M9,13a1,1,0,0,1-.71-.29L7.59,12H5.46a1.48,1.48,0,0,1-1.41-1,1.5,1.5,0,0,1,.52-1.66L7.4,7.2A1,1,0,1,1,8.6,8.8L7,10H8a1,1,0,0,1,.71.29l1,1a1,1,0,0,1,0,1.42A1,1,0,0,1,9,13Z"/><path class="cls-1" d="M10,9A3,3,0,0,1,7,6V5a3,3,0,0,1,6,0V6A3,3,0,0,1,10,9Zm0-5A1,1,0,0,0,9,5V6a1,1,0,0,0,2,0V5A1,1,0,0,0,10,4Z"/><path class="cls-1" d="M18,10a1,1,0,0,1-.71-.29L16.59,9H10a1,1,0,0,1,0-2h7a1,1,0,0,1,.71.29l1,1a1,1,0,0,1,0,1.42A1,1,0,0,1,18,10Z"/></svg>