<svg id="Layer_2" data-name="Layer 2" xmlns="http://www.w3.org/2000/svg" viewBox="0 0 24 24"><defs><style>.cls-1{fill:#333;}</style></defs><path class="cls-1" d="M13,20a9,9,0,0,1-9-9,9.27,9.27,0,0,1,.17-1.75,1,1,0,0,1,1.18-.79,1,1,0,0,1,.78,1.17A7.85,7.85,0,0,0,6,11,7,7,0,1,0,7.63,6.51,1,1,0,1,1,6.09,5.23,9,9,0,1,1,13,20Z"/><path class="cls-1" d="M13,12A5,5,0,0,1,13,2a1,1,0,0,1,0,2,3,3,0,0,0,0,6,1,1,0,0,1,0,2Z"/><path class="cls-1" d="M13,20a1,1,0,0,1,0-2,3,3,0,0,0,0-6,1,1,0,0,1,0-2,5,5,0,0,1,0,10Z"/><path class="cls-1" d="M9,16a5,5,0,0,1-5-5,1,1,0,0,1,2,0,3,3,0,0,0,6,0,1,1,0,0,1,2,0A5,5,0,0,1,9,16Z"/><path class="cls-1" d="M21,12a1,1,0,0,1-1-1,3,3,0,0,0-6,0,1,1,0,0,1-2,0,5,5,0,0,1,10,0A1,1,0,0,1,21,12Z"/><path class="cls-1" d="M2.5,22.5a1,1,0,0,1-.71-.29,1,1,0,0,1,0-1.42l4.5-4.5a1,1,0,0,1,1.42,1.42l-4.5,4.5A1,1,0,0,1,2.5,22.5Z"/></svg>