<svg id="Layer_2" data-name="Layer 2" xmlns="http://www.w3.org/2000/svg" viewBox="0 0 24 24"><defs><style>.cls-1{fill:#333;}</style></defs><path class="cls-1" d="M9,10A1,1,0,0,1,8,9V5a1,1,0,0,1,.11-.45l1-2a1,1,0,0,1,1.78.9L10,5.24V9A1,1,0,0,1,9,10Z"/><path class="cls-1" d="M13,10a1,1,0,0,1-1-1V5a1,1,0,0,1,.11-.45l1-2a1,1,0,0,1,1.78.9L14,5.24V9A1,1,0,0,1,13,10Z"/><path class="cls-1" d="M17,10a1,1,0,0,1-1-1V6a1,1,0,0,1,.11-.45l1-2a1,1,0,0,1,1.78.9L18,6.24V9A1,1,0,0,1,17,10Z"/><path class="cls-1" d="M15,22a1,1,0,0,1-1-1V17a1,1,0,0,1,.29-.71L16,14.59V12a1,1,0,0,1,.68-.95l3-1a1,1,0,0,1,.64,1.9L18,12.72V15a1,1,0,0,1-.29.71L16,17.41V21A1,1,0,0,1,15,22Z"/><path class="cls-1" d="M9,18a1,1,0,0,1-1-1V14.41l-3.71-3.7A1,1,0,0,1,4,10V7A1,1,0,0,1,6,7V9.59l3.71,3.7A1,1,0,0,1,10,14v3A1,1,0,0,1,9,18Z"/><path class="cls-1" d="M19,22H6a1,1,0,0,1,0-2H19a1,1,0,0,1,0,2Z"/><path class="cls-1" d="M17,13a1,1,0,0,1-1-1V10H9A1,1,0,0,1,9,8h8a1,1,0,0,1,1,1v3A1,1,0,0,1,17,13Z"/></svg>