<svg id="Layer_2" data-name="Layer 2" xmlns="http://www.w3.org/2000/svg" viewBox="0 0 24 24"><defs><style>.cls-1{fill:#333;}</style></defs><path class="cls-1" d="M18,16a1,1,0,0,1-.43-1.9c.41-.2.44-.95.43-1.83V9a5.08,5.08,0,0,0-5.12-5H11.12A5.08,5.08,0,0,0,6,9v3.27c0,.88,0,1.63.43,1.83a1,1,0,0,1-.86,1.8C4,15.15,4,13.33,4,12.25V9a7.09,7.09,0,0,1,7.12-7h1.76A7.09,7.09,0,0,1,20,9v3.25c0,1.08,0,2.9-1.57,3.65A1,1,0,0,1,18,16Z"/><path class="cls-1" d="M13.5,22h-3c-2.36,0-4-2.06-4-5a1,1,0,0,1,2,0c0,1.11.42,3,2,3h3c1.58,0,2-1.89,2-3a1,1,0,0,1,2,0C17.5,19.94,15.86,22,13.5,22Z"/><ellipse class="cls-1" cx="19.58" cy="12.55" rx="2.05" ry="1.22" transform="translate(-3.14 17.52) rotate(-45)"/><ellipse class="cls-1" cx="4.42" cy="12.55" rx="1.22" ry="2.05" transform="translate(-7.58 6.81) rotate(-45)"/><path class="cls-1" d="M13.09,11a1.64,1.64,0,0,0-.09.5,1.5,1.5,0,0,0,3,0,1.64,1.64,0,0,0-.09-.5Z"/><path class="cls-1" d="M8.09,11a1.64,1.64,0,0,0-.09.5,1.5,1.5,0,0,0,3,0,1.64,1.64,0,0,0-.09-.5Z"/><path class="cls-1" d="M12.75,8h-1.5a3,3,0,0,1-2.13-.88L8,6H6L7,4l5-1,5,1,1,2H16L14.88,7.12A3,3,0,0,1,12.75,8Z"/><polygon class="cls-1" points="10 19 10 15 13 15 10 19"/><polygon class="cls-1" points="14 19 14 15 11 15 14 19"/></svg>