<svg id="Layer_2" data-name="Layer 2" xmlns="http://www.w3.org/2000/svg" viewBox="0 0 24 24"><defs><style>.cls-1{fill:#333;}</style></defs><path class="cls-1" d="M14.16,12.93a1,1,0,0,1-.81-.41,1,1,0,0,1,.22-1.4C16.22,9.21,20,5.8,20.05,4.23A.29.29,0,0,0,19.94,4a.32.32,0,0,0-.3-.08c-1.56.26-4.56,4.43-6.19,7.31a1,1,0,1,1-1.74-1c.73-1.29,4.55-7.78,7.61-8.29a2.3,2.3,0,0,1,1.95.55,2.34,2.34,0,0,1,.78,1.88c-.16,3.08-6.11,7.55-7.3,8.41A1,1,0,0,1,14.16,12.93Z"/><path class="cls-1" d="M11.4,22.2a.78.78,0,0,1-.22,0c-.24-.05-5.93-1.39-9.1-8.78A1,1,0,0,1,3,12a8.54,8.54,0,0,0,3.94-1.1,1,1,0,1,1,.93,1.77,11.45,11.45,0,0,1-3.35,1.19A12.43,12.43,0,0,0,11.2,20.1a11.76,11.76,0,0,0,3.67-6,14.62,14.62,0,0,0-4.82-3.6,1,1,0,0,1,.89-1.79c4.2,2.1,5.73,4.46,5.8,4.56a1,1,0,0,1,.15.53c0,2.41-2.49,6.56-4.93,8.22A1,1,0,0,1,11.4,22.2Z"/><path class="cls-1" d="M11.83,16.12a1,1,0,0,1-.75-.34,24.92,24.92,0,0,0-4.31-3.07,1,1,0,0,1,1-1.72,26.91,26.91,0,0,1,4.8,3.48,1,1,0,0,1-.1,1.41A1,1,0,0,1,11.83,16.12Z"/></svg>