<svg id="Layer_2" data-name="Layer 2" xmlns="http://www.w3.org/2000/svg" viewBox="0 0 24 24"><defs><style>.cls-1{fill:#333;}</style></defs><path class="cls-1" d="M18.77,10.41h-.23a1,1,0,0,1-.66-.34.93.93,0,0,1-.23-.7,1,1,0,0,1,1-.89h.1a1,1,0,0,0,1-1,.94.94,0,0,0-.24-.62,6.89,6.89,0,0,0-4.76-2.42,4.79,4.79,0,0,0-.55,0A6.87,6.87,0,0,0,9.67,6.11a1,1,0,0,0-.34.73,1,1,0,0,0,.24.63,1,1,0,0,0,1.36.11,5,5,0,0,1,3.26-1.21l.41,0a4.94,4.94,0,0,1,.87.14h0A1,1,0,1,1,15,8.4a3.31,3.31,0,0,0-.55-.08H14.2a3,3,0,0,0-2,.74,2.86,2.86,0,0,1-1.87.69h0a2.89,2.89,0,0,1-1.88-5.1A8.85,8.85,0,0,1,14.18,2.5c.29,0,.51,0,.72,0A8.8,8.8,0,0,1,21,5.62a2.9,2.9,0,0,1-2.2,4.79Z"/><path class="cls-1" d="M18.38,21.77H18.3l-1-.09a1,1,0,0,1-.59-.26L14.8,19.57a1,1,0,0,1-.21-1.1l.55-1.21-2.21-.88a1,1,0,0,1,.72-1.8l2.32.93a1.85,1.85,0,0,1,1,1A1.89,1.89,0,0,1,17,18l-.32.68,1.2,1.14.63.06a1,1,0,0,1-.08,1.93Zm-3.13-4.46h0Z"/><path class="cls-1" d="M6.76,21.77a1,1,0,0,1-.68-.28l-1-1a1,1,0,0,1-.23-1l.74-2.22a1.67,1.67,0,0,1,.84-1,1.7,1.7,0,0,1,1.29-.09l.95.32V13.2a1.23,1.23,0,0,0-.5-.61,1.86,1.86,0,0,0-1.42-.05,4,4,0,0,1-4.77-2,1,1,0,0,1,1.78-.76,2.13,2.13,0,0,0,2.48.9,3.68,3.68,0,0,1,3,.26,3.17,3.17,0,0,1,1.39,1.92,1.23,1.23,0,0,1,0,.2V17.9a1,1,0,0,1-.4.78.94.94,0,0,1-.87.14l-2-.66L6.9,19.57l.55.55a1,1,0,0,1,0,1.37A1,1,0,0,1,6.76,21.77Z"/><path class="cls-1" d="M19.34,15a1,1,0,0,1-.69-.29L18,14h-2.5a1,1,0,0,1-.68-.28l-1.94-1.94a.92.92,0,0,1-.28-.7,1,1,0,0,1,.3-.69,2.18,2.18,0,0,0,.32-.35,1,1,0,0,1,1.36-.16,1,1,0,0,1,.29,1.15l1,1h2.5a1,1,0,0,1,.69.28l1,1A1,1,0,0,1,19.34,15Z"/><path class="cls-1" d="M9.66,14a1,1,0,0,1-.12-1.93,6.44,6.44,0,0,0,3.36-1.7,1,1,0,0,1,1.36.09,1,1,0,0,1-.09,1.37A8.28,8.28,0,0,1,9.79,14Z"/><path class="cls-1" d="M20.16,6.16a8,8,0,0,0-1.68-1.45l-.75,1a2.48,2.48,0,0,0,.6,3.66.89.89,0,0,0,.29.12,2,2,0,0,0,1.5-.54A2,2,0,0,0,20.16,6.16Z"/></svg>