<svg id="Layer_2" data-name="Layer 2" xmlns="http://www.w3.org/2000/svg" viewBox="0 0 24 24"><defs><style>.cls-1{fill:#333;}</style></defs><path class="cls-1" d="M17,23a1,1,0,0,1-1-.89l-1-9a1,1,0,0,1,.24-.78A1,1,0,0,1,16,12h3.76a.24.24,0,0,0,.11-.45L14.55,8.89A1,1,0,0,1,14,8V6a2,2,0,0,0-4,0V8a1,1,0,0,1-.55.89L4.13,11.55a.24.24,0,0,0,.11.45H8a1,1,0,0,1,.75.33,1,1,0,0,1,.24.78l-1,9a1,1,0,0,1-2-.22L6.88,14H4.24a2.24,2.24,0,0,1-1-4.24L8,7.38V6a4,4,0,0,1,8,0V7.38l4.76,2.38a2.24,2.24,0,0,1-1,4.24H17.12L18,21.89a1,1,0,0,1-.88,1.1Z"/></svg>