<svg id="Layer_2" data-name="Layer 2" xmlns="http://www.w3.org/2000/svg" viewBox="0 0 24 24"><defs><style>.cls-1{fill:#333;}</style></defs><path class="cls-1" d="M12,22a5.48,5.48,0,0,1-2.52-.61,1,1,0,0,1,.92-1.78A3.38,3.38,0,0,0,12,20a3.47,3.47,0,1,0-3.43-2.78,1,1,0,1,1-1.95.41A5.35,5.35,0,0,1,6.5,16.5,5.5,5.5,0,1,1,12,22Z"/><path class="cls-1" d="M12,12a3,3,0,1,1,3-3A3,3,0,0,1,12,12Zm0-4a1,1,0,1,0,1,1A1,1,0,0,0,12,8Z"/><path class="cls-1" d="M13.5,12a1,1,0,0,1-.67-1.74l4.52-4.11A2,2,0,0,0,18,4.67V3a1,1,0,0,1,2,0V4.67a4,4,0,0,1-1.31,3l-4.52,4.11A1,1,0,0,1,13.5,12Z"/><path class="cls-1" d="M20,21a1,1,0,0,1-1-1V18.75a3,3,0,0,0-1-2.2l-5.21-4.82a1,1,0,1,1,1.36-1.46l5.21,4.81A5,5,0,0,1,21,18.75V20A1,1,0,0,1,20,21Z"/><path class="cls-1" d="M18.72,12H14a1,1,0,0,1,0-2h4.72a2,2,0,0,0,1.44-.61l1.12-1.17a1,1,0,1,1,1.44,1.39l-1.11,1.16A4,4,0,0,1,18.72,12Z"/><path class="cls-1" d="M10.5,12a1,1,0,0,1-.67-.26L5.31,7.63A4,4,0,0,1,4,4.67V3A1,1,0,0,1,6,3V4.67a2,2,0,0,0,.65,1.48l4.52,4.11A1,1,0,0,1,10.5,12Z"/><path class="cls-1" d="M4,21a1,1,0,0,1-1-1V18.75a5,5,0,0,1,1.61-3.67l5.21-4.81a1,1,0,0,1,1.36,1.46L6,16.55a3,3,0,0,0-1,2.2V20A1,1,0,0,1,4,21Z"/><path class="cls-1" d="M10,12H5.24a4,4,0,0,1-2.83-1.17L1.29,9.71A1,1,0,0,1,2.71,8.29L3.83,9.41A2,2,0,0,0,5.24,10H10a1,1,0,0,1,0,2Z"/></svg>