<svg id="Layer_2" data-name="Layer 2" xmlns="http://www.w3.org/2000/svg" viewBox="0 0 24 24"><defs><style>.cls-1{fill:#333;}</style></defs><path class="cls-1" d="M13.5,22h-3c-2.36,0-4-2.06-4-5a1,1,0,0,1,2,0c0,1.11.42,3,2,3h3c1.58,0,2-1.89,2-3a1,1,0,0,1,2,0C17.5,19.94,15.86,22,13.5,22Z"/><path class="cls-1" d="M18,16a1,1,0,0,1-.43-1.9,1.37,1.37,0,0,0,.71-.91.69.69,0,0,0-.07-.58A1,1,0,0,1,18,12V8a4,4,0,0,0-4-4H10A4,4,0,0,0,6,8v4a1,1,0,0,1-.21.61.69.69,0,0,0-.07.58,1.37,1.37,0,0,0,.71.91,1,1,0,0,1-.86,1.8,3.43,3.43,0,0,1-1.8-2.24A2.65,2.65,0,0,1,4,11.71V8a6,6,0,0,1,6-6h4a6,6,0,0,1,6,6v3.71a2.65,2.65,0,0,1,.23,1.95,3.43,3.43,0,0,1-1.8,2.24A1,1,0,0,1,18,16Z"/><path class="cls-1" d="M13,18H11a1,1,0,0,1,0-2h2a1,1,0,0,1,0,2Z"/><path class="cls-1" d="M15,8H6A1,1,0,0,1,6,6h9a1,1,0,0,1,0,2Z"/><path class="cls-1" d="M21,11H19a1,1,0,0,1,0-2h2a1,1,0,0,1,0,2Z"/><path class="cls-1" d="M5,11H3A1,1,0,0,1,3,9H5a1,1,0,0,1,0,2Z"/><circle class="cls-1" cx="9.5" cy="11.5" r="1.5"/><circle class="cls-1" cx="14.5" cy="11.5" r="1.5"/></svg>