<svg id="Layer_2" data-name="Layer 2" xmlns="http://www.w3.org/2000/svg" viewBox="0 0 24 24"><defs><style>.cls-1{fill:#333;}</style></defs><path class="cls-1" d="M19,22a1,1,0,0,1-1-1V9c0-2-2.2-5-5.12-5H11.12a4.51,4.51,0,0,0-2.24.62,1,1,0,0,1-1-1.74A6.44,6.44,0,0,1,11.12,2h1.76A7.55,7.55,0,0,1,20,9V21A1,1,0,0,1,19,22ZM5,22a1,1,0,0,1-1-1V9a6.19,6.19,0,0,1,.78-2.86,1,1,0,1,1,1.77.93A4.22,4.22,0,0,0,6,9V21A1,1,0,0,1,5,22Z"/><path class="cls-1" d="M8.5,10h1A1.5,1.5,0,0,1,11,11.5v0A1.5,1.5,0,0,1,9.5,13H7a0,0,0,0,1,0,0V11.5A1.5,1.5,0,0,1,8.5,10Z"/><path class="cls-1" d="M14.5,10h1A1.5,1.5,0,0,1,17,11.5V13a0,0,0,0,1,0,0H14.5A1.5,1.5,0,0,1,13,11.5v0A1.5,1.5,0,0,1,14.5,10Z"/><path class="cls-1" d="M11.47,13l-.56.84a.64.64,0,0,0,.53,1h1.12a.64.64,0,0,0,.53-1L12.53,13A.64.64,0,0,0,11.47,13Z"/><path class="cls-1" d="M22,22H2V20.83a2,2,0,0,1,.59-1.42L5,17V14l4,2,1,3h4l1-3,4-2v3l2.41,2.41A2,2,0,0,1,22,20.83Z"/></svg>