<svg id="Layer_2" data-name="Layer 2" xmlns="http://www.w3.org/2000/svg" viewBox="0 0 24 24"><defs><style>.cls-1{fill:#333;}</style></defs><path class="cls-1" d="M19,22H9.29a1,1,0,0,1,0-2H18V19a2,2,0,0,0-2-2H8a2,2,0,0,0-2,2v1.3a1,1,0,0,1,.29.7,1,1,0,0,1-1,1H5a1,1,0,0,1-1-1V19a4,4,0,0,1,4-4h8a4,4,0,0,1,4,4v2A1,1,0,0,1,19,22Z"/><path class="cls-1" d="M10,17a1,1,0,0,1-1-1V12H6a1,1,0,0,1-1-1V7A1,1,0,0,1,6,6H9V3a1,1,0,0,1,1-1h4a1,1,0,0,1,1,1V6h3a1,1,0,0,1,1,1v4a1,1,0,0,1-1,1H15v1a1,1,0,0,1-2,0V11a1,1,0,0,1,1-1h3V8H14a1,1,0,0,1-1-1V4H11V7a1,1,0,0,1-1,1H7v2h3a1,1,0,0,1,1,1v5A1,1,0,0,1,10,17Z"/></svg>