<svg id="Layer_2" data-name="Layer 2" xmlns="http://www.w3.org/2000/svg" viewBox="0 0 24 24"><defs><style>.cls-1{fill:#333;}</style></defs><path class="cls-1" d="M12,19a7,7,0,1,1,7-7A7,7,0,0,1,12,19ZM12,7a5,5,0,1,0,5,5A5,5,0,0,0,12,7Z"/><path class="cls-1" d="M18.1,9.44a3.61,3.61,0,0,1-2.38-.81A1,1,0,1,1,17,7.11a1.65,1.65,0,0,0,1.08.33,3.25,3.25,0,0,0,2-.76,5.36,5.36,0,0,0-2.82-2.82,2.92,2.92,0,0,0-.29.38,1,1,0,0,1-1.37.33,1,1,0,0,1-.33-1.38A4.53,4.53,0,0,1,16,2.35a1.76,1.76,0,0,1,1.25-.5c1.93,0,4.91,3,4.91,4.91A1.76,1.76,0,0,1,21.65,8,5.17,5.17,0,0,1,18.1,9.44Z"/><path class="cls-1" d="M6.76,22.15c-1.93,0-4.91-3-4.91-4.91A1.76,1.76,0,0,1,2.35,16,5.17,5.17,0,0,1,5.9,14.56a3.61,3.61,0,0,1,2.38.81A1,1,0,0,1,7,16.89a1.65,1.65,0,0,0-1.08-.33,3.25,3.25,0,0,0-2,.76,5.36,5.36,0,0,0,2.82,2.82A2.92,2.92,0,0,0,7,19.76a1,1,0,0,1,1.37-.33,1,1,0,0,1,.33,1.38,4.53,4.53,0,0,1-.66.84A1.76,1.76,0,0,1,6.76,22.15Z"/><path class="cls-1" d="M12,15a3,3,0,0,1-3-2.58,1,1,0,0,1,2-.28A1,1,0,1,0,12.28,11a1,1,0,1,1,.56-1.92A3,3,0,0,1,12,15Z"/></svg>