<svg id="Layer_2" data-name="Layer 2" xmlns="http://www.w3.org/2000/svg" viewBox="0 0 24 24"><defs><style>.cls-1{fill:#333;}</style></defs><path class="cls-1" d="M17.5,23a2.54,2.54,0,0,1-2.08-1.25,5.45,5.45,0,0,1-6.84,0A2.54,2.54,0,0,1,6.5,23C4.2,23,3,19.48,3,16c0-2.45.63-5.22,2-6.41A7,7,0,0,1,19,10a.57.57,0,0,1,0,.13,1,1,0,0,1-2,0A.28.28,0,0,0,17,10,5,5,0,0,0,7,10a1.15,1.15,0,0,1-.56,1C5.84,11.31,5,13.2,5,16c0,3.28,1.11,5,1.5,5,.11,0,.52-.31.9-1.29a1,1,0,0,1,1.72-.25A3.66,3.66,0,0,0,12,21a3.66,3.66,0,0,0,2.88-1.54,1,1,0,0,1,1.72.25c.38,1,.79,1.29.9,1.29.39,0,1.5-1.72,1.5-5a11.76,11.76,0,0,0-.37-3,1,1,0,0,1,.7-1.23,1,1,0,0,1,1.23.71A13.49,13.49,0,0,1,21,16C21,19.48,19.8,23,17.5,23Z"/><path class="cls-1" d="M6.9,7.5a1,1,0,0,1-1-.75L5,3.25a1,1,0,0,1,.4-1.07,1,1,0,0,1,1.14,0L9.17,4A1,1,0,1,1,8,5.62l-.38-.26.23.89a1,1,0,0,1-.72,1.21A.73.73,0,0,1,6.9,7.5Z"/><path class="cls-1" d="M17.1,7.5a.73.73,0,0,1-.25,0,1,1,0,0,1-.72-1.21l.23-.89L16,5.62A1,1,0,1,1,14.83,4l2.6-1.8a1,1,0,0,1,1.14,0A1,1,0,0,1,19,3.25l-.9,3.5A1,1,0,0,1,17.1,7.5Z"/><path class="cls-1" d="M6.5,23a1,1,0,0,1,0-2C6.89,21,8,19.28,8,16a1,1,0,0,1,2,0C10,19.48,8.8,23,6.5,23Z"/><path class="cls-1" d="M17.5,23c-2.3,0-3.5-3.52-3.5-7a1,1,0,0,1,2,0c0,3.28,1.11,5,1.5,5a1,1,0,0,1,0,2Z"/><path class="cls-1" d="M11.62,13.71l-.81-2c0-.89,2.38-.89,2.38,0l-.81,2A.41.41,0,0,1,11.62,13.71Z"/><circle class="cls-1" cx="9.5" cy="9.5" r="1.5"/><circle class="cls-1" cx="14.5" cy="9.5" r="1.5"/></svg>